<?xml version="1.0" standalone="no"?><!DOCTYPE svg PUBLIC "-//W3C//DTD SVG 1.1//EN" "http://www.w3.org/Graphics/SVG/1.1/DTD/svg11.dtd"><svg t="1635085918533" class="icon" viewBox="0 0 1024 1024" version="1.1" xmlns="http://www.w3.org/2000/svg" p-id="4253" xmlns:xlink="http://www.w3.org/1999/xlink" width="200" height="200"><defs><style type="text/css"></style></defs><path d="M916.363636 779.589818c47.848727-30.254545 72.657455-83.479273 67.141819-135.796363-44.567273-32.116364-106.449455-37.003636-158.021819-7.447273-4.538182 2.606545-8.634182 5.632-12.776727 8.610909-71.424-60.951273-165.469091-98.048-268.660364-98.048-131.072 0-247.272727 59.927273-321.186909 152.576l66.466909 80.151273-66.466909 80.151272c73.914182 92.648727 190.114909 152.576 321.186909 152.576 103.191273 0 197.259636-37.073455 268.660364-98.048 4.142545 2.978909 8.238545 6.027636 12.776727 8.610909 51.572364 29.556364 113.454545 24.669091 158.021819-7.447272 5.515636-52.340364-19.269818-105.611636-67.141819-135.889455" fill="#0eadd6" p-id="4254" data-spm-anchor-id="a313x.7781069.0.i15" class="selected"></path><path d="M451.421091 826.181818a46.429091 46.429091 0 0 1-46.312727-46.545454c0-25.716364 20.736-46.545455 46.312727-46.545455s46.312727 20.829091 46.312727 46.545455-20.736 46.545455-46.312727 46.545454" fill="#38454F" p-id="4255" data-spm-anchor-id="a313x.7781069.0.i19" class="selected"></path><path d="M314.368 430.545455V146.990545A69.725091 69.725091 0 0 0 360.983273 81.454545a69.957818 69.957818 0 0 0-139.869091 0c0 30.301091 19.549091 55.877818 46.615273 65.536V430.545455a93.253818 93.253818 0 0 1-186.507637 0v-60.183273l30.161455 30.091636a23.296 23.296 0 0 0 32.954182-32.907636l-69.934546-69.818182a23.272727 23.272727 0 0 0-39.796364 16.453818v116.363637c0 77.009455 62.743273 139.636364 139.869091 139.636363 77.149091 0 139.892364-62.626909 139.892364-139.636363z m-23.319273-372.363637c12.846545 0 23.319273 10.449455 23.319273 23.272727a23.342545 23.342545 0 0 1-46.638545 0c0-12.823273 10.472727-23.272727 23.319272-23.272727z" fill="#EEAF4B" p-id="4256" data-spm-anchor-id="a313x.7781069.0.i18" class="selected"></path></svg>